<svg width="38" height="30" viewBox="0 0 38 30" fill="none" xmlns="http://www.w3.org/2000/svg">
<path d="M17.86 0L3.63 10.42V19.07L17.86 29.49C17.83 7.26 17.86 18.17 17.86 0Z" fill="#B3B3B3"/>
<path d="M0 21.9198H7.47V7.55981H0V21.9198Z" fill="#B3B3B3"/>
<path d="M27 29.1399C26.6559 29.1407 26.3193 29.0395 26.0328 28.849C25.7462 28.6586 25.5225 28.3874 25.39 28.0699C25.2993 27.8572 25.2514 27.6286 25.249 27.3974C25.2467 27.1661 25.2899 26.9367 25.3763 26.7221C25.4627 26.5076 25.5905 26.3122 25.7524 26.1471C25.9143 25.982 26.1072 25.8504 26.32 25.7599C27.7344 25.1603 29.0184 24.2907 30.1 23.1999C32.3328 20.9541 33.5873 17.9167 33.59 14.7499C33.5793 11.5788 32.3138 8.5408 30.07 6.29988C28.9863 5.20894 27.7031 4.33644 26.29 3.72988C25.8627 3.547 25.5251 3.20251 25.3509 2.7716C25.1766 2.3407 25.1799 1.85837 25.36 1.42988C25.4463 1.21604 25.5746 1.02173 25.7375 0.858495C25.9003 0.695259 26.0943 0.566432 26.308 0.479673C26.5216 0.392914 26.7505 0.349995 26.9811 0.353466C27.2116 0.356938 27.4391 0.406729 27.65 0.49988C31.3419 2.07523 34.2782 5.02222 35.84 8.71988C36.6452 10.6177 37.0601 12.6583 37.06 14.7199C37.059 16.7804 36.6477 18.82 35.85 20.7199C35.077 22.5565 33.9526 24.2244 32.54 25.6299C31.1475 27.0638 29.4858 28.209 27.65 28.9999C27.4453 29.0907 27.224 29.1384 27 29.1399Z" fill="#B3B3B3"/>
<path d="M23.6901 22.0801C23.3095 22.0796 22.9408 21.9476 22.6464 21.7064C22.352 21.4652 22.15 21.1297 22.0747 20.7566C21.9993 20.3835 22.0553 19.9959 22.2331 19.6594C22.4108 19.3229 22.6995 19.0581 23.0501 18.9101C23.8657 18.5635 24.5607 17.9838 25.0482 17.2438C25.5356 16.5037 25.7937 15.6362 25.7901 14.7501C25.7936 14.149 25.6745 13.5535 25.4401 13.0001C25.2032 12.4627 24.8635 11.9769 24.4401 11.5701C24.0313 11.1489 23.5459 10.8095 23.0101 10.5701C22.6565 10.3727 22.3884 10.0515 22.2575 9.66825C22.1265 9.28504 22.142 8.86693 22.301 8.49445C22.4599 8.12197 22.751 7.82146 23.1182 7.6508C23.4855 7.48013 23.9029 7.45138 24.2901 7.57008C25.4626 8.07189 26.4951 8.8522 27.2978 9.84332C28.1006 10.8344 28.6494 12.0064 28.8967 13.2577C29.144 14.5089 29.0823 15.8016 28.7169 17.0235C28.3516 18.2455 27.6936 19.3599 26.8001 20.2701C26.0943 20.9834 25.255 21.5508 24.3301 21.9401C24.1283 22.0293 23.9107 22.0769 23.6901 22.0801Z" fill="#B3B3B3"/>
</svg>
